<svg xmlns="http://www.w3.org/2000/svg" xml:space="preserve" style="enable-background:new 0 0 22 22" viewBox="0 0 22 22"><path d="M19.5 6.7c-.1 0-.2 0-.3-.1l-1.6-.9c-.3-.2-.4-.5-.2-.8.2-.3.5-.4.8-.2l1.6.9c.3.2.4.5.2.8-.1.2-.3.3-.5.3zm-3.3-2c-.1 0-.2 0-.3-.1l-1.7-1c-.3-.2-.4-.5-.2-.8s.5-.4.8-.2l1.7 1c.3.2.4.5.2.8-.1.2-.3.3-.5.3zm-3.5-2c-.1 0-.2 0-.3-.1l-1.7-1c-.3-.2-.4-.5-.2-.8.2-.3.5-.4.8-.2l1.7 1c.3.2.4.5.2.8-.1.2-.3.3-.5.3z"/><path d="M19.4 16.7c-.3 0-.6-.3-.6-.6l.1-10c0-.3.3-.6.6-.6s.6.3.6.6l-.1 10c0 .3-.3.6-.6.6zM2.5 6.7c-.2 0-.4-.1-.5-.3-.2-.3-.1-.7.2-.9L10.7.6c.3-.2.7-.1.8.2.2.3.1.7-.2.8l-8.5 5c-.1 0-.2.1-.3.1z"/><path d="M2.5 16.5c-.3 0-.6-.3-.6-.6V6.1c0-.3.3-.6.6-.6s.6.3.6.6V16c0 .3-.3.5-.6.5z"/><path d="M11 21.5c-.1 0-.2 0-.3-.1l-8.5-4.9c-.3-.2-.4-.5-.2-.8.2-.3.5-.4.8-.2l8.5 4.9c.3.2.4.5.2.8-.1.2-.3.3-.5.3z"/><path d="M11 21.5c-.2 0-.4-.1-.5-.3-.2-.3-.1-.7.2-.8l8.4-4.8c.3-.2.7-.1.8.2.2.3.1.7-.2.8l-8.4 4.8c-.1 0-.2.1-.3.1zM4.5 7h.9l3.1 5V7h.8v8h-.6L5.3 9.5v5.4h-.8V7z"/><path d="M12.7 7v.7H9.5v2.7h2.3v.6H9.5v4h-.7V7h3.9zm4.9 0v.7h-1.7V15h-1.2V7.7H13V7h4.6z"/></svg>
