<svg xmlns="http://www.w3.org/2000/svg" width="21.5" height="20.5"><path d="M16.8 20.2c-.2 0-.4-.1-.5-.2l-4-4c-.2-.2-.3-.5-.2-.8.1-.3.4-.5.7-.5h8c.3 0 .6.2.7.5.1.3.1.6-.2.8l-4 4c-.2.1-.4.2-.5.2zm-2.2-4 2.2 2.2 2.2-2.2h-4.4zm-4-.8H2.1c-.4 0-.8-.3-.8-.8s.3-.8.8-.8h8.5c.4 0 .8.3.8.8s-.4.8-.8.8zM2.5 4.3h14.7v1.5H2.5zm16.3 6.3H.8c-.5 0-.8-.3-.8-.8S.3 9 .8 9h18c.4 0 .8.3.8.8s-.4.8-.8.8z"/><path d="M9.3 20.2c-.1 0-.1 0 0 0-5.3-.4-9.4-4.7-9.3-10 0-2.6 1-5.1 2.8-7C4.6 1.3 7.1.3 9.7.2c3.2.2 6 1.7 8 4.1 1.3 1.7 2 3.7 2.1 5.8.1.7 0 1.4-.1 2.1-.1.4-.5.7-.9.6-.4-.1-.7-.5-.6-.9.1-.6.1-1.2.1-1.7-.1-1.8-.7-3.5-1.8-4.9-1.7-2-4.2-3.3-6.9-3.5-2.2 0-4.3.9-5.8 2.5S1.5 8 1.5 10.2c0 4.5 3.4 8.2 7.8 8.5.4 0 .7.4.7.8s-.3.7-.7.7z"/><path d="M9.3 20.2c-.2 0-.4-.1-.5-.2-3-3.2-4.6-6.8-4.4-10.2.2-3.3 1.9-6.5 5.1-9.3.3-.3.8-.2 1.1.1.3.3.2.8-.1 1.1-2.9 2.4-4.4 5.2-4.6 8.1-.2 3.1 1.2 6.1 4 9.1.3.3.3.8 0 1.1-.2.1-.4.2-.6.2z"/><path d="M14.5 12.8c-.4 0-.8-.3-.8-.8 0-3.9-1.5-7.6-4.2-10.5-.3-.3-.3-.8 0-1.1.3-.3.8-.3 1.1 0 3 3.1 4.7 7.2 4.7 11.5-.1.5-.4.9-.8.9z"/></svg>
