<svg xmlns="http://www.w3.org/2000/svg" viewBox="0 0 21 19.8" style="enable-background:new 0 0 21 19.8" xml:space="preserve"><path d="M16.5 19.6c-.1 0-.3 0-.4-.1l-4-4c-.1-.2-.1-.4-.1-.6s.3-.3.5-.3h8c.2 0 .4.1.5.3s0 .4-.1.5l-4 4c-.1.1-.3.2-.4.2zm-2.8-4 2.8 2.8 2.8-2.8h-5.6zm-3.3-.8H1.9c-.3 0-.5-.2-.5-.5s.2-.5.5-.5h8.5c.3 0 .5.2.5.5s-.3.5-.5.5zM2.2 4.2h14.7v1H2.2zM18.5 10H.5c-.3 0-.5-.2-.5-.5S.2 9 .5 9h18c.3 0 .5.2.5.5s-.2.5-.5.5z"/><path d="M9 19.6C3.9 19.2-.1 15 0 9.9c0-2.6.9-5 2.7-6.8C4.5 1.3 6.9.2 9.5.2c3.1.2 5.8 1.6 7.8 4 1.3 1.6 2 3.6 2.1 5.6.1.7 0 1.4-.1 2-.1.3-.3.4-.6.4-.3-.1-.5-.3-.4-.6.1-.6.1-1.2.1-1.8-.1-1.9-.7-3.6-1.8-5-1.8-2.1-4.3-3.4-7.1-3.6-2.3 0-4.4.9-6 2.6C1.8 5.4 1 7.6 1 9.9c0 4.6 3.5 8.4 8 8.7.3 0 .5.3.5.5 0 .3-.2.5-.5.5z"/><path d="M9.1 19.6c-.1 0-.3-.1-.4-.2-3-3.2-4.5-6.7-4.3-10C4.6 6.1 6.3 3 9.4.3c.2-.2.5-.2.7.1.2.2.2.5-.1.7-2.8 2.5-4.4 5.4-4.6 8.4-.2 3.1 1.2 6.2 4 9.3.2.2.2.5 0 .7-.1 0-.2.1-.3.1z"/><path d="M14.2 12.2c-.3 0-.5-.2-.5-.5 0-4-1.5-7.8-4.3-10.6-.2-.2-.2-.5 0-.7.2-.2.5-.2.7 0 3 3 4.6 7.1 4.6 11.3 0 .3-.2.5-.5.5z"/></svg>
